<?xml version="1.0" encoding="utf-8"?>
<!-- Generator: Adobe Illustrator 22.0.1, SVG Export Plug-In . SVG Version: 6.00 Build 0)  -->
<svg version="1.1" xmlns="http://www.w3.org/2000/svg" xmlns:xlink="http://www.w3.org/1999/xlink" x="0px" y="0px"
	 viewBox="0 0 906 417" style="enable-background:new 0 0 906 417;" xml:space="preserve">
<style type="text/css">
	.st0{fill:#7372B5;}
	.st1{opacity:0.90;}
	.st2{fill:#0F4B5F;}
	.st3{clip-path:url(#SVGID_2_);fill:#FFFFFF;}
	.st4{clip-path:url(#SVGID_2_);}
	.st5{fill:#FFFFFF;}
</style>
<g id="Layer_1">
	<g class="st1">
		<path class="st2" d="M304.3,65.3v92.6c0,8.8-1.3,15.5-3.8,20.1s-6.8,8.4-12.6,11.4c-5.9,3-12.9,4.5-21,4.5c-5.9,0-11-0.9-15.1-2.6
			c-4.1-1.7-7.3-4-9.4-6.8c-2.1-2.8-3.1-5.8-3.1-8.8c0-3.2,1.3-5.9,3.8-8.1c2.6-2.2,5.4-3.3,8.6-3.3c2,0,4.1,0.6,6.3,1.8
			s4.7,3.5,7.6,6.9c1.7,2,3.3,3,4.8,3c1.9,0,3.4-0.8,4.5-2.3c1.1-1.6,1.7-4.4,1.7-8.4v-76h-12.9V72.7c6-0.1,11.6-0.8,16.8-1.9
			c5.2-1.2,10.4-3,15.5-5.5H304.3z M290.2,26.5c4.4,0,8.2,1.6,11.3,4.6c3.1,3.1,4.6,6.9,4.6,11.3c0,4.3-1.6,8.1-4.6,11.2
			c-3.1,3.1-6.9,4.7-11.3,4.7c-4.3,0-8.1-1.5-11.2-4.6c-3.1-3.1-4.6-6.9-4.6-11.3c0-4.4,1.5-8.2,4.6-11.3
			C282.2,28.1,285.9,26.5,290.2,26.5z"/>
		<path class="st2" d="M378.7,101.5v-6.4c0-3.8-0.3-6.5-1-7.9c-0.6-1.4-1.8-2.7-3.5-3.6c-1.7-1-3.8-1.4-6.3-1.4
			c-1.9,0-3.7,0.3-5.2,1c-1.6,0.6-2.8,1.4-3.7,2.4c-0.9,1-2,2.9-3.2,5.7c-1.6,3.6-3.4,6.2-5.6,7.7s-4.7,2.3-7.7,2.3
			c-3.7,0-6.8-1.2-9.1-3.5c-2.4-2.3-3.6-5.2-3.6-8.6c0-3.9,1.2-7.3,3.7-10.3c3.2-4,8.1-7.3,14.5-9.8c6.4-2.5,13.7-3.8,21.7-3.8
			c8.1,0,14.9,1.3,20.6,3.9s9.6,5.7,11.8,9.3c2.2,3.6,3.3,9.1,3.3,16.6v31.1c0,3.8,0.2,6.3,0.6,7.3c0.4,1.1,1.3,2,2.6,2.8
			c1.3,0.8,2.8,1.2,4.4,1.2c1.6,0,3.8-0.5,6.5-1.4v16.9c-4.9,1.6-9.6,2.3-14.2,2.3c-5.3,0-9.9-0.9-13.6-2.6
			c-3.8-1.7-6.9-4.3-9.5-7.8c-5.8,3.8-11.1,6.4-15.8,8c-4.7,1.6-9.3,2.4-13.7,2.4c-8.3,0-15-2.3-20.1-7c-5.1-4.7-7.6-10.4-7.6-17.3
			c0-3.9,0.9-7.4,2.7-10.7c1.8-3.2,4.4-6.1,7.9-8.5c3.5-2.4,8.9-4.6,16.3-6.5C359.3,103.7,368.2,102.4,378.7,101.5z M378.7,116
			c-7.6,1.1-13,2.2-16.1,3.3s-5.4,2.6-6.7,4.3c-1.3,1.7-2,3.5-2,5.3c0,2.3,0.9,4.3,2.6,5.8s4.1,2.3,7,2.3c1.9,0,4.1-0.5,6.6-1.5
			c2.5-1,5.3-2.4,8.5-4.3V116z"/>
		<path class="st2" d="M470.3,65.3v12.6c4.6-4.9,8.7-8.2,12.1-10c3.4-1.8,6.7-2.7,9.8-2.7c2.8,0,5.4,0.7,7.6,2
			c2.2,1.3,4,3.2,5.3,5.6c1.3,2.4,2,5,2,7.8c0,3.7-1.2,7-3.6,9.9c-2.4,3-5.8,4.4-10.2,4.4c-1.2,0-2.2-0.1-3.1-0.3s-2.8-0.8-5.7-1.7
			c-1.5-0.5-2.8-0.7-3.7-0.7c-1.5,0-4,1-7.5,2.9v34c0,2.9,0.2,4.8,0.7,5.6s1.1,1.5,2.1,1.9c1,0.4,3.1,0.6,6.4,0.6h3.8v16.8h-53.6
			v-16.8h4.5c3.2,0,5.2-0.2,6-0.5c0.8-0.3,1.4-1,1.8-1.8c0.4-0.9,0.6-2.8,0.6-5.8V89.3h-12.9V72.6c9.4-0.6,19.3-3,29.5-7.3H470.3z"
			/>
		<path class="st2" d="M575.2,67.4h11.4l7,24.2l-16.4,6.6c-3.1-5-7.1-9-11.8-11.9c-4.7-2.9-9.4-4.3-14-4.3c-3.1,0-5.4,0.5-6.9,1.6
			c-1.5,1-2.3,2.3-2.3,3.7c0,1.2,0.5,2.3,1.6,3.4c1.1,1,3.3,2.1,6.6,3.3l23.9,8.5c4.2,1.5,8.3,3.4,12.2,5.6c3.9,2.3,6.8,5,8.7,8.3
			c1.9,3.3,2.9,7.1,2.9,11.5c0,7.9-3,14.3-9,19.4c-7.1,5.9-15.9,8.9-26.4,8.9c-9,0-16.9-2.3-23.6-6.9l-2.4,4.8h-11.6l-10.7-28.5
			l16.4-7c4.1,6.4,9.2,11.5,15.2,15.2c6,3.7,11.6,5.5,16.6,5.5c3.1,0,5.8-0.7,7.9-2.2c1.6-1.2,2.4-2.5,2.4-4.1
			c0-1.3-0.6-2.6-1.9-3.8c-1.3-1.2-4.1-2.6-8.4-4.1l-18.8-6.5c-10.4-3.7-17.4-7.5-21.2-11.7c-3.7-4.1-5.6-9.1-5.6-14.7
			c0-7.3,2.9-13.4,8.8-18.4c6.7-5.7,14.9-8.5,24.7-8.5c8.7,0,16.1,2,22.3,5.9L575.2,67.4z"/>
	</g>
	<g class="st1">
		<path class="st2" d="M296.4,243.3c9.9,0,18.5,1.9,25.9,5.8c7.4,3.9,13,9.2,17,15.9c4,6.7,6,14.5,6,23.5c0,13.6-4.4,24.6-13.2,33
			c-8.8,8.5-20.6,12.7-35.3,12.7c-15,0-26.9-4.3-35.8-12.8c-8.6-8.1-12.9-19.1-12.9-32.9c0-9.1,2-16.9,5.9-23.5
			c3.9-6.5,9.6-11.8,17-15.8C278.4,245.3,286.9,243.3,296.4,243.3z M296.8,262.3c-3.3,0-6.4,1-9.3,3c-2.9,2-5.1,4.9-6.7,8.7
			c-1.6,3.8-2.4,8.7-2.4,14.6c0,6.1,0.8,11.1,2.3,15.1s3.7,7,6.5,8.9c2.8,1.9,5.8,2.9,9.1,2.9c5.1,0,9.5-2.2,13.1-6.5
			c3.7-4.3,5.5-11,5.5-20.1c0-8.8-1.7-15.4-5.1-19.9S302,262.3,296.8,262.3z"/>
		<path class="st2" d="M416.2,245.4v18.3h-14.1v42.6c0,3.4,0.1,5.5,0.4,6.2c0.4,1,1.1,1.7,2,2.2c0.9,0.5,2.8,0.7,5.7,0.7h4.9v16.8
			h-53.6v-16.8h4.3c3.5,0,5.6-0.2,6.3-0.5c0.8-0.3,1.3-1,1.7-1.9c0.4-0.9,0.6-3.1,0.6-6.7v-42.6h-12.9v-18.3h12.9v-9
			c0-6.4,1.1-11.6,3.4-15.6c2.7-4.8,7-8.7,12.9-11.7c5.9-3,13-4.5,21.2-4.5c8.7,0,15.5,1.8,20.4,5.5c4.9,3.7,7.4,7.8,7.4,12.2
			c0,3.5-1.1,6.4-3.3,8.6c-2.2,2.2-5.2,3.3-8.8,3.3c-1.4,0-2.9-0.2-4.2-0.7c-1.4-0.4-2.7-1.1-3.9-2c-0.9-0.6-2.3-2-4.4-4.3
			c-2-2.1-3.3-3.4-4-3.8c-0.9-0.5-1.7-0.8-2.4-0.8c-2,0-3.5,0.9-4.7,2.7c-1.1,1.8-1.7,5.5-1.7,10.9v9H416.2z"/>
		<path class="st2" d="M573.4,299.3l12.8,11.2c-6.8,8.3-13.9,14.3-21.3,18.1c-7.4,3.8-15.2,5.6-23.6,5.6c-13.4,0-24.7-4.4-33.7-13.1
			c-9-8.7-13.5-19.4-13.5-32c0-8.5,2.1-16.3,6.3-23.4c4.2-7.1,10-12.6,17.3-16.5c7.3-3.9,16-5.9,25.9-5.9c11.9,0,21.7,2.8,29.2,8.3
			c7.6,5.5,11.3,11.4,11.3,17.5c0,2.6-0.6,4.9-1.8,7c-1.2,2.1-3,3.7-5.4,5c-2.4,1.3-5,1.9-7.7,1.9c-2.2,0-4.2-0.4-5.9-1.3
			s-3.2-2-4.3-3.3c-0.5-0.6-1.5-2.4-3-5.4c-1.9-3.8-3.4-6.3-4.4-7.5s-2.3-2.2-3.7-2.8c-1.4-0.7-3.1-1-5-1c-3,0-5.9,1-8.6,2.9
			c-2.8,1.9-5,4.9-6.8,8.8c-1.8,3.9-2.7,8.3-2.7,13.2c0,5.3,1,10.1,3.1,14.4s4.9,7.5,8.4,9.7c3.5,2.2,7.4,3.3,11.6,3.3
			c4.1,0,8.1-1.1,12.3-3.3C564.2,308.5,568.7,304.7,573.4,299.3z"/>
		<path class="st2" d="M638.8,204.5v101.7c0,3.4,0.1,5.4,0.4,6.1c0.4,1.2,1.3,2,2.7,2.5c0.9,0.3,3.2,0.5,7,0.5h3v16.8h-53.8v-16.8
			h3.3c3.5,0,5.7-0.2,6.7-0.7c1-0.4,1.7-1.1,2.2-2.1c0.5-1,0.7-3.1,0.7-6.4v-77.5h-12.9v-16.8c10.4-0.7,21.1-3.2,32.2-7.4H638.8z"/>
		<path class="st2" d="M715.4,279.5v-6.4c0-3.8-0.3-6.5-1-7.9c-0.6-1.4-1.8-2.7-3.5-3.6c-1.7-1-3.8-1.4-6.3-1.4
			c-1.9,0-3.7,0.3-5.2,1c-1.6,0.6-2.8,1.4-3.7,2.4c-0.9,1-2,2.9-3.2,5.7c-1.6,3.6-3.4,6.2-5.6,7.7c-2.2,1.6-4.7,2.3-7.7,2.3
			c-3.7,0-6.8-1.2-9.1-3.5c-2.4-2.3-3.6-5.2-3.6-8.6c0-3.9,1.2-7.3,3.7-10.3c3.2-4,8.1-7.3,14.5-9.8c6.4-2.5,13.7-3.8,21.7-3.8
			c8.1,0,14.9,1.3,20.6,3.9c5.7,2.6,9.6,5.7,11.8,9.3c2.2,3.6,3.3,9.1,3.3,16.6v31.1c0,3.8,0.2,6.3,0.6,7.3c0.4,1.1,1.3,2,2.6,2.8
			c1.3,0.8,2.8,1.2,4.4,1.2c1.6,0,3.8-0.5,6.5-1.4v16.9c-4.9,1.6-9.6,2.3-14.2,2.3c-5.3,0-9.9-0.9-13.6-2.6
			c-3.8-1.7-6.9-4.3-9.5-7.8c-5.8,3.8-11.1,6.4-15.8,8c-4.7,1.6-9.3,2.4-13.7,2.4c-8.3,0-15-2.3-20.1-7c-5.1-4.7-7.6-10.4-7.6-17.3
			c0-3.9,0.9-7.4,2.7-10.7c1.8-3.2,4.4-6.1,7.9-8.5s8.9-4.6,16.3-6.5C696,281.7,704.9,280.4,715.4,279.5z M715.4,294
			c-7.6,1.1-13,2.2-16.1,3.3s-5.4,2.6-6.7,4.3c-1.3,1.7-2,3.5-2,5.3c0,2.3,0.9,4.3,2.6,5.8s4.1,2.3,7,2.3c1.9,0,4.1-0.5,6.6-1.5
			c2.5-1,5.3-2.4,8.5-4.3V294z"/>
		<path class="st2" d="M763.3,245.4h54.2v16.8H814c-3.3,0-5.3,0.2-6.2,0.7s-1.3,1.1-1.3,1.9c0,0.7,0.6,2.5,1.8,5.5l13.1,31.4
			l13.7-31.4c1-2.4,1.6-4.1,1.6-5.1c0-0.9-0.4-1.6-1.3-2.1c-0.9-0.5-2.9-0.7-6-0.7h-5v-16.8h46.9v16.8c-4.1,0.1-6.6,0.2-7.3,0.4
			c-1,0.2-1.8,0.7-2.5,1.3c-0.6,0.6-1.7,2.4-3.1,5.3l-39.3,80.6c-4.1,8.4-8.6,14.3-13.5,17.6c-4.9,3.4-10.8,5-17.6,5
			c-6.6,0-12-1.8-16-5.3c-4.1-3.5-6.1-7.5-6.1-11.9c0-3.5,1.2-6.5,3.7-9s5.4-3.8,8.8-3.8c2.3,0,4.6,0.6,6.8,1.7
			c1.4,0.8,2.9,2,4.4,3.8c0.9,1.2,1.7,1.9,2.2,2.2c0.6,0.3,1.1,0.5,1.6,0.5c1.2,0,2.4-0.6,3.6-1.7c1.7-1.8,3.7-5.1,5.9-9.8l3.3-7.1
			l-29.6-62c-1.4-3.1-2.6-5.1-3.3-5.9c-0.8-0.8-1.7-1.4-2.7-1.7c-1-0.3-3.4-0.4-7.4-0.4V245.4z"/>
	</g>
	<g>
		<defs>
			<rect id="SVGID_1_" x="29" y="160.9" width="334.2" height="104.1"/>
		</defs>
		<clipPath id="SVGID_2_">
			<use xlink:href="#SVGID_1_"  style="overflow:visible;"/>
		</clipPath>
		<path class="st3" d="M191.2,237.8c-3.5,3.8-7.8,5.7-13.1,5.7c-3.2,0-6-0.7-8.5-2c-1.8-1-3.6-2.5-5.4-4.5l-2.2,5.5h-3.8v-53h-7.1
			v-3.4c1.8-0.1,3.5-0.5,5.2-1c1.7-0.5,3.6-1.3,5.6-2.4h3v24.9c2.4-1.8,4.9-3.1,7.4-4c2.5-0.9,5.1-1.3,7.7-1.3c3,0,5.9,0.8,8.4,2.4
			c2.6,1.6,4.6,3.9,6.1,6.9c1.5,3,2.2,6.5,2.2,10.5C196.8,228.4,194.9,233.7,191.2,237.8 M219.1,217.8l5.9-4.9l-5.9-4.9l4.7-6
			l-6.7-3.6l3.4-6.8l-7.3-2.1l1.9-7.4l-7.6-0.5l0.3-7.6l-7.6,1.1l-1.3-7.5l-7.2,2.6l-2.8-7.1l-6.5,4.1l-4.2-6.3l-5.5,5.3l-5.5-5.3
			l-4.2,6.3l-6.5-4.1l-2.8,7.1l-7.2-2.6l-1.3,7.5l-7.6-1.1l0.3,7.6l-7.6,0.5l1.9,7.4l-7.3,2.1l3.4,6.8l-6.8,3.6l4.7,6l-5.9,4.9
			l5.9,4.9l-4.7,6l6.8,3.6l-3.4,6.8l7.3,2.1l-1.9,7.4l7.6,0.5l-0.3,7.6l7.6-1.1l1.3,7.5l7.2-2.6l2.8,7.1l6.5-4.1l4.2,6.3l5.5-5.3
			l5.5,5.3l4.2-6.3l6.5,4.1l2.8-7.1l7.2,2.6l1.3-7.5l7.6,1.1l-0.3-7.6l7.6-0.5l-1.9-7.4l7.3-2.1l-3.4-6.8l6.7-3.6L219.1,217.8z
			 M177.3,206.9c-1.8,0-3.6,0.3-5.5,1c-1.8,0.7-4.2,1.9-7,3.7v15.7c0,2.5,0.2,4.2,0.5,5.2c0.4,1,1.1,2,2.2,3.1
			c1.1,1,2.4,1.9,3.9,2.5c1.5,0.6,3,0.9,4.6,0.9c2.4,0,4.6-0.6,6.6-1.9c2-1.3,3.5-3.2,4.7-5.7c1.1-2.5,1.7-5.5,1.7-9
			c0-4.9-1.2-8.9-3.6-11.8C183.5,208.1,180.8,206.9,177.3,206.9"/>
		<path class="st3" d="M245.4,209.9v7.9c0,1.2,0.1,2.1,0.3,2.6c0.2,0.5,0.5,1,1.1,1.5c0.6,0.5,1.2,0.9,1.9,1.2
			c0.7,0.3,1.5,0.5,2.3,0.5c1.2,0,2.3-0.3,3.3-1c1-0.6,1.8-1.6,2.3-2.8c0.6-1.3,0.9-2.8,0.9-4.5c0-2.5-0.6-4.4-1.8-5.9
			c-1-1.2-2.3-1.8-4.1-1.8c-0.9,0-1.8,0.2-2.7,0.5C248,208.4,246.8,209,245.4,209.9 M238.5,198.9v-1.7c0.9-0.1,1.8-0.2,2.6-0.5
			c0.8-0.3,1.8-0.7,2.8-1.2h1.5v12.4c1.2-0.9,2.4-1.6,3.7-2c1.3-0.4,2.6-0.7,3.9-0.7c1.5,0,2.9,0.4,4.2,1.2c1.3,0.8,2.3,2,3.1,3.5
			c0.7,1.5,1.1,3.2,1.1,5.3c0,3.2-0.9,5.8-2.8,7.9c-1.7,1.9-3.9,2.9-6.6,2.9c-1.6,0-3-0.3-4.3-1c-0.9-0.5-1.8-1.2-2.7-2.3l-1.1,2.8
			h-1.9v-26.5H238.5z"/>
		<path class="st3" d="M279.5,215.3c-3.2,0.5-5.1,0.8-5.9,1c-1.5,0.3-2.5,0.7-3.2,1.1c-0.6,0.4-1.1,0.8-1.4,1.3
			c-0.3,0.5-0.4,1-0.4,1.5c0,0.5,0.2,1,0.5,1.5c0.3,0.5,0.7,0.9,1.3,1.2c0.6,0.3,1.1,0.4,1.8,0.4c0.9,0,1.9-0.2,3-0.6
			c1.1-0.4,2.5-1.2,4.3-2.5V215.3z M279.5,213.6l0-2.2c0-1.5-0.4-2.6-1.3-3.2c-0.8-0.6-2-1-3.6-1c-0.8,0-1.4,0.1-2,0.3
			c-0.6,0.2-1,0.4-1.4,0.8s-0.6,0.7-0.8,1.1c-0.1,0.1-0.2,0.7-0.5,1.7c-0.3,1.2-0.9,1.8-1.9,1.8c-0.5,0-1-0.2-1.3-0.5
			c-0.3-0.4-0.5-0.8-0.5-1.5c0-0.9,0.3-1.8,1-2.6c0.7-0.9,1.7-1.6,3.1-2.1c1.4-0.6,3-0.8,4.8-0.8c1.7,0,3.2,0.3,4.5,0.8
			c1.2,0.5,2.1,1.3,2.7,2.3c0.4,0.7,0.6,2,0.6,3.8v7.8c0,1.1,0,1.8,0.1,2.2c0.1,0.6,0.4,1,0.8,1.3c0.4,0.3,0.9,0.4,1.5,0.4
			c0.6,0,1.4-0.1,2.2-0.4v1.8c-1.1,0.3-2.1,0.5-3,0.5c-1,0-1.8-0.1-2.4-0.4c-0.7-0.3-1.2-0.7-1.6-1.2c-0.4-0.5-0.7-1.1-0.8-1.9
			c-1.6,1.3-3.1,2.2-4.4,2.7c-1.3,0.5-2.7,0.8-4,0.8c-1.9,0-3.4-0.5-4.6-1.5c-1.2-1-1.8-2.2-1.8-3.6c0-0.8,0.2-1.6,0.6-2.4
			c0.4-0.7,1.1-1.4,2-2c0.9-0.6,2.3-1.1,4.1-1.5C273.5,214.3,276.1,213.9,279.5,213.6"/>
		<path class="st3" d="M302,205.7h1.4l1.8,6.2l-1.8,0.6c-0.7-1.7-1.8-3-3.1-3.9c-1.3-1-2.7-1.4-4-1.4c-1,0-1.9,0.3-2.5,0.8
			c-0.7,0.5-1,1.1-1,1.8c0,0.6,0.2,1.2,0.7,1.6c0.5,0.5,1.5,1,3.1,1.6l4,1.4c2.2,0.8,3.8,1.7,4.6,2.6c0.8,0.9,1.2,2,1.2,3.1
			c0,1-0.3,1.9-0.9,2.9c-0.6,0.9-1.5,1.6-2.6,2.2c-1.1,0.5-2.4,0.8-3.9,0.8c-2.3,0-4.2-0.7-5.9-2l-0.4,1.5h-1.5l-2.5-6.7l1.8-0.7
			c1.2,2,2.4,3.3,3.5,4.2c1.5,1.2,3.2,1.7,5,1.7c1.2,0,2.2-0.3,2.9-0.9c0.8-0.6,1.1-1.3,1.1-2.1c0-0.6-0.2-1.2-0.7-1.8
			c-0.5-0.5-1.4-1-2.8-1.5l-4.7-1.7c-2-0.7-3.4-1.5-4.2-2.4c-0.8-0.9-1.2-1.9-1.2-3c0-1.4,0.6-2.6,1.9-3.6s2.9-1.6,4.9-1.6
			c1,0,2,0.1,2.8,0.4c0.8,0.3,1.6,0.7,2.4,1.3L302,205.7z"/>
		<path class="st3" d="M315.3,196c0.7,0,1.2,0.2,1.7,0.7c0.5,0.5,0.7,1,0.7,1.7c0,0.7-0.2,1.2-0.7,1.7c-0.5,0.5-1,0.7-1.7,0.7
			c-0.7,0-1.2-0.2-1.7-0.7c-0.5-0.5-0.7-1-0.7-1.7c0-0.7,0.2-1.2,0.7-1.7C314.1,196.2,314.7,196,315.3,196 M310.2,208.6v-1.7
			c1.1-0.1,2.1-0.3,2.8-0.6c0.8-0.2,1.6-0.6,2.6-1.1h1.5v16.4c0,0.6,0.1,1,0.2,1.3c0.2,0.3,0.4,0.5,0.7,0.6c0.3,0.1,0.8,0.2,1.6,0.2
			h1v1.7h-10.4v-1.7h0.8c0.9,0,1.5-0.1,1.8-0.2c0.3-0.2,0.5-0.4,0.7-0.7c0.1-0.3,0.2-1,0.2-2.1v-12H310.2z"/>
		<path class="st3" d="M340.9,219.7l1.3,1.1c-2.6,3.4-5.6,5.1-9.2,5.1c-2.8,0-5.1-1-7.1-3c-1.9-2-2.9-4.5-2.9-7.4
			c0-2,0.4-3.7,1.3-5.3c0.9-1.6,2.1-2.8,3.7-3.7s3.4-1.3,5.5-1.3c2.3,0,4.3,0.6,5.9,1.7c1.6,1.1,2.3,2.3,2.3,3.5
			c0,0.6-0.2,1.1-0.6,1.4c-0.4,0.3-0.8,0.5-1.2,0.5c-0.2,0-0.5-0.1-0.7-0.2c-0.2-0.1-0.5-0.3-0.7-0.6c-0.1-0.1-0.3-0.5-0.6-1.1
			c-0.4-0.8-0.7-1.3-0.9-1.6c-0.4-0.5-0.9-1-1.6-1.3c-0.6-0.3-1.3-0.5-2.1-0.5c-1.2,0-2.2,0.3-3.2,1c-1,0.6-1.8,1.6-2.3,2.8
			c-0.6,1.2-0.9,2.7-0.9,4.5c0,2.7,0.7,4.8,2.1,6.4c1.2,1.4,2.7,2,4.4,2c0.8,0,1.6-0.1,2.4-0.4c0.8-0.3,1.6-0.7,2.3-1.2
			C338.8,221.8,339.7,221,340.9,219.7"/>
		<path class="st3" d="M358.8,205.7h1.4l1.8,6.2l-1.8,0.6c-0.7-1.7-1.8-3-3.1-3.9c-1.3-1-2.7-1.4-4-1.4c-1,0-1.9,0.3-2.5,0.8
			c-0.7,0.5-1,1.1-1,1.8c0,0.6,0.2,1.2,0.7,1.6c0.5,0.5,1.5,1,3.1,1.6l4,1.4c2.2,0.8,3.8,1.7,4.6,2.6c0.8,0.9,1.2,2,1.2,3.1
			c0,1-0.3,1.9-0.9,2.9c-0.6,0.9-1.5,1.6-2.6,2.2c-1.1,0.5-2.4,0.8-3.9,0.8c-2.3,0-4.2-0.7-5.9-2l-0.4,1.5H348l-2.5-6.7l1.8-0.7
			c1.2,2,2.4,3.3,3.5,4.2c1.5,1.2,3.2,1.7,5,1.7c1.2,0,2.2-0.3,2.9-0.9c0.8-0.6,1.1-1.3,1.1-2.1c0-0.6-0.2-1.2-0.7-1.8
			c-0.5-0.5-1.4-1-2.8-1.5l-4.7-1.7c-2-0.7-3.4-1.5-4.2-2.4c-0.8-0.9-1.2-1.9-1.2-3c0-1.4,0.6-2.6,1.9-3.6c1.3-1.1,2.9-1.6,4.9-1.6
			c1,0,2,0.1,2.8,0.4c0.8,0.3,1.6,0.7,2.4,1.3L358.8,205.7z"/>
		<g class="st4">
			<path class="st5" d="M32.9,211.1l-1.6,0.2c-0.1-0.8-0.1-1.5-0.1-2c0-1.3,0.4-2.6,1.1-3.8c0.7-1.2,1.7-2.1,3-2.8
				c1.3-0.7,2.8-1,4.5-1c1.6,0,3,0.3,4.3,0.9c1.2,0.6,2.2,1.5,2.8,2.6c0.7,1.1,1,2.3,1,3.7c0,1.2-0.2,2.3-0.6,3.3
				c-0.4,1-1.1,2-2,3.1c-0.7,0.8-2.1,1.9-4.3,3.5c-2.7,2-4.8,3.5-6.2,4.4h8.8c1,0,1.7-0.1,2-0.3c0.4-0.2,0.7-0.8,0.9-1.7l0.2-1H48
				l-1.2,6.4h-1.1l-0.2-0.8H30.7v-1.4l2.7-2.1c2.1-1.5,3.6-2.7,4.5-3.5c1.8-1.5,3.2-2.9,4.1-3.9c0.9-1.1,1.6-2.1,1.9-3
				c0.3-0.9,0.5-1.8,0.5-2.8c0-1.6-0.5-2.9-1.5-3.9c-1-1-2.4-1.5-4-1.5c-1.2,0-2.2,0.3-3.2,0.8c-0.9,0.5-1.7,1.2-2.2,2.1
				c-0.5,0.9-0.8,1.9-0.8,3C32.9,210,32.9,210.5,32.9,211.1z"/>
			<path class="st5" d="M59.3,201.8c1.7,0,3.3,0.4,4.6,1.3c1.3,0.9,2.4,2.3,3.2,4.2c0.8,1.9,1.2,4.2,1.2,6.9c0,4-1,7.1-3,9.4
				c-1.6,1.8-3.7,2.7-6.2,2.7c-1.7,0-3.2-0.5-4.5-1.4c-1.3-0.9-2.4-2.2-3.2-4.1c-0.8-1.8-1.2-4.1-1.2-6.9c0-2.8,0.4-5.1,1.2-6.8
				c0.8-1.8,1.9-3.1,3.2-4C56,202.2,57.6,201.8,59.3,201.8z M59.2,203.4c-1.2,0-2.2,0.4-3.1,1.3c-0.8,0.7-1.4,1.9-1.9,3.5
				c-0.5,1.8-0.8,3.9-0.8,6.1c0,1.7,0.2,3.3,0.5,4.7c0.3,1.4,0.7,2.5,1.3,3.3c0.5,0.8,1.1,1.4,1.8,1.7c0.7,0.4,1.4,0.6,2.1,0.6
				c1.1,0,2.2-0.4,3.1-1.3c0.8-0.7,1.4-1.8,1.9-3.2c0.5-1.7,0.8-3.7,0.8-6.1c0-2.4-0.3-4.4-0.8-6.1c-0.6-1.7-1.2-2.8-2-3.5
				C61.3,203.8,60.4,203.4,59.2,203.4z"/>
			<path class="st5" d="M79.6,202.2h1.3v19.7c0,0.9,0.1,1.5,0.2,1.8c0.1,0.3,0.3,0.5,0.6,0.6c0.3,0.1,0.8,0.2,1.6,0.2H85v1.4H73.8
				v-1.4h1.9c0.8,0,1.3-0.1,1.6-0.2c0.3-0.1,0.5-0.4,0.6-0.7c0.1-0.3,0.2-0.9,0.2-1.7v-16.2h-4.3v-1.5
				C76.1,203.9,78.1,203.2,79.6,202.2z"/>
			<path class="st5" d="M100.9,212.7c1.3,0.5,2.4,1,3.1,1.4c1,0.7,1.8,1.4,2.3,2.3c0.5,0.9,0.8,1.9,0.8,2.9c0,1.9-0.8,3.5-2.4,4.9
				c-1.6,1.4-3.8,2-6.5,2c-2.9,0-5.2-0.8-6.8-2.3c-1.3-1.2-2-2.6-2-4.2c0-1.3,0.4-2.4,1.3-3.4c1.1-1.2,2.6-2.1,4.6-2.8
				c-1.5-0.7-2.7-1.5-3.3-2.2c-0.9-1-1.3-2.2-1.3-3.5c0-1.7,0.6-3.1,1.9-4.1c1.6-1.3,3.6-1.9,6-1.9c2.2,0,3.9,0.6,5.3,1.7
				c1.3,1.1,2,2.4,2,3.8c0,0.7-0.2,1.4-0.5,2s-0.8,1.3-1.5,1.8C103.1,211.7,102.1,212.2,100.9,212.7z M97,214.3
				c-1.6,0.7-2.9,1.6-3.8,2.7c-0.7,0.9-1.1,1.8-1.1,2.8c0,1.3,0.6,2.4,1.7,3.4c1.1,1,2.6,1.5,4.4,1.5c1.8,0,3.4-0.6,4.6-1.7
				c1-0.9,1.5-1.9,1.5-3c0-0.8-0.3-1.6-1-2.4c-0.7-0.8-1.9-1.5-3.7-2.2L97,214.3z M99.4,212.1c1.3-1,2.1-1.7,2.5-2
				c0.4-0.4,0.7-0.8,0.9-1.3c0.2-0.5,0.3-1,0.3-1.4c0-0.7-0.2-1.3-0.6-1.9c-0.4-0.6-1-1.1-1.7-1.5c-0.8-0.4-1.6-0.6-2.6-0.6
				c-1.4,0-2.6,0.4-3.5,1.2c-0.9,0.8-1.4,1.7-1.4,2.7c0,0.8,0.3,1.5,0.9,2.2c0.6,0.6,1.7,1.3,3.2,1.9L99.4,212.1z"/>
		</g>
	</g>
</g>
<g id="Layer_2">
</g>
</svg>
